HIERARCHY
ROOT Hips
{
	OFFSET -0.179506 -22.333345 2.821913
	CHANNELS 6 Xposition Yposition Zposition Zrotation Yrotation Xrotation 
	JOINT LeftUpLeg
	{
		OFFSET 6.951974 -9.140623 -0.681533
		CHANNELS 3 Zrotation Yrotation Xrotation
		JOINT LeftLeg
		{
			OFFSET 3.427654 -37.519855 -0.449580
			CHANNELS 3 Zrotation Yrotation Xrotation
			JOINT LeftFoot
			{
				OFFSET -1.359570 -39.796059 -4.369333
				CHANNELS 3 Zrotation Yrotation Xrotation
				JOINT LeftToe
				{
					OFFSET 2.635814 -5.579078 11.928840
					CHANNELS 3 Zrotation Yrotation Xrotation
					End Site
					{
						OFFSET 0.000000 0.000000 0.000000
					}
				}
			}
		}
	}
	JOINT RightUpLeg
	{
		OFFSET -6.767048 -9.052170 -0.431982
		CHANNELS 3 Zrotation Yrotation Xrotation
		JOINT RightLeg
		{
			OFFSET -3.829005 -38.256897 -0.885003
			CHANNELS 3 Zrotation Yrotation Xrotation
			JOINT RightFoot
			{
				OFFSET 1.577377 -39.841461 -4.231180
				CHANNELS 3 Zrotation Yrotation Xrotation
				JOINT RightToe
				{
					OFFSET -2.537174 -4.814398 12.334795
					CHANNELS 3 Zrotation Yrotation Xrotation
					End Site
					{
						OFFSET 0.000000 0.000000 0.000000
					}
				}
			}
		}
	}
	JOINT Spine
	{
		OFFSET -0.253288 10.896323 -2.669631
		CHANNELS 3 Zrotation Yrotation Xrotation
		JOINT Spine1
		{
			OFFSET 0.548704 13.518043 0.109247
			CHANNELS 3 Zrotation Yrotation Xrotation
			JOINT Spine2
			{
				OFFSET 0.145701 5.292222 2.542457
				CHANNELS 3 Zrotation Yrotation Xrotation
				JOINT Neck
				{
					OFFSET -0.277840 21.387037 -4.285703
					CHANNELS 3 Zrotation Yrotation Xrotation
					JOINT Head
					{
						OFFSET 0.515184 6.496960 5.134897
						CHANNELS 3 Zrotation Yrotation Xrotation
						End Site
						{
							OFFSET 0.000000 0.000000 0.000000
						}
					}
				}
				JOINT LeftShoulder
				{
					OFFSET 7.884473 12.174932 -3.408961
					CHANNELS 3 Zrotation Yrotation Xrotation
					JOINT LeftArm
					{
						OFFSET 9.097692 3.046888 -0.886815
						CHANNELS 3 Zrotation Yrotation Xrotation
						JOINT LeftForeArm
						{
							OFFSET 25.961220 -1.277207 -2.745643
							CHANNELS 3 Zrotation Yrotation Xrotation
							JOINT LeftHand
							{
								OFFSET 24.923361 0.898606 -0.117091
								CHANNELS 3 Zrotation Yrotation Xrotation
								End Site
								{
									OFFSET 0.000000 0.000000 0.000000
								}
							}
						}
					}
				}
				JOINT RightShoulder
				{
					OFFSET -8.175920 11.883285 -3.861528
					CHANNELS 3 Zrotation Yrotation Xrotation
					JOINT RightArm
					{
						OFFSET -9.601238 3.255117 -0.914307
						CHANNELS 3 Zrotation Yrotation Xrotation
						JOINT RightForeArm
						{
							OFFSET -25.374195 -1.332924 -2.140099
							CHANNELS 3 Zrotation Yrotation Xrotation
							JOINT RightHand
							{
								OFFSET -25.529810 0.777228 -0.555919
								CHANNELS 3 Zrotation Yrotation Xrotation
								End Site
								{
									OFFSET 0.000000 0.000000 0.000000
								}
							}
						}
					}
				}
			}
		}
	}
}
MOTION
Frames: 17
Frame Time: 0.033333
-0.179506 65.274918 2.821913 116.611273 -36.193545 155.386991 6.861576 0.519525 -3.758217 -1.686917 -6.361873 19.868461 -2.401094 13.580692 15.400481 -0.185533 -0.241070 -0.273480 -2.992776 -5.113789 -4.093896 -1.408549 -2.069202 28.542498 -2.479714 -13.426567 11.519021 2.368687 0.554656 -0.423639 -1.457499 -2.155439 14.632863 -1.708085 -1.718973 -9.393131 1.669884 -3.599121 5.981979 0.647264 -4.942891 1.292281 4.395269 2.320374 -5.157023 -16.596051 7.221970 5.969556 -34.938819 8.313422 8.271331 -9.989131 -28.180293 16.022691 -8.590238 -10.394957 0.630763 12.290114 -5.788062 -0.892061 47.732173 -12.212880 9.271377 -7.586828 25.163809 0.892677 4.795553 6.649224 -2.974604 
-0.081031 65.302147 1.816552 115.965214 -35.358546 156.354848 6.972326 0.499388 -3.654415 -1.675199 -6.279321 19.812750 -2.307029 13.846652 15.507748 -0.236872 -0.213355 -0.276949 -2.887091 -4.919935 -4.331149 -1.443190 -2.205238 28.677689 -2.711434 -13.139880 10.439078 2.359136 0.548205 -0.461213 -1.540525 -2.177449 14.470746 -1.652125 -1.730305 -9.261783 1.668637 -3.531408 5.814397 0.475507 -4.894219 1.376190 4.341160 2.308840 -5.197921 -16.662507 7.598826 6.260780 -34.258780 8.860834 8.552030 -10.493143 -27.750336 16.003190 -8.994985 -10.368890 0.802421 12.625661 -5.916610 -0.866211 47.397613 -12.590732 9.324032 -7.485362 25.699725 0.434562 4.974327 6.692157 -3.153996 
-0.195378 65.330894 1.642034 115.923004 -35.046059 156.627396 7.056953 0.509294 -3.874641 -1.693808 -6.208669 20.056960 -1.984917 13.856245 15.297814 -0.252500 -0.227141 -0.253236 -2.785769 -4.885652 -4.248902 -1.415576 -2.107856 28.298967 -2.880045 -13.079295 9.845004 2.362898 0.535322 -0.533345 -1.536162 -2.123799 14.366479 -1.492763 -1.733969 -9.151377 1.623291 -3.466287 5.653537 0.335185 -4.823018 1.544673 4.158340 2.116813 -5.188978 -16.766720 7.586058 6.136258 -33.488233 8.863682 8.410155 -10.799503 -28.232095 15.606518 -9.239176 -10.506335 0.964889 12.936014 -5.906859 -0.892977 46.821074 -12.617348 9.270892 -7.271852 25.711199 0.444908 5.072372 6.708256 -2.781508 
-0.364936 65.359276 1.729847 116.067901 -34.690100 156.583300 7.073937 0.383381 -3.750281 -1.588718 -6.434298 19.861293 -1.497631 14.266963 14.959566 -0.245844 -0.263418 -0.266088 -2.732809 -4.971386 -4.175552 -1.362898 -2.271273 28.047492 -2.979883 -12.985918 9.574223 2.353211 0.552924 -0.532644 -1.523585 -2.098868 14.259596 -1.453552 -1.788619 -9.107196 1.678703 -3.453450 5.646304 0.223822 -4.709945 1.461288 4.084176 2.236195 -5.064712 -16.294153 7.482046 6.035606 -32.758652 8.660731 8.227566 -11.085616 -28.907477 15.500477 -9.217261 -10.615736 0.839249 12.864215 -5.892259 -1.032095 46.530978 -12.482383 9.148012 -7.035892 25.946699 0.333097 4.977404 6.750557 -2.670340 
-0.551591 65.388466 1.637186 116.146982 -34.234790 156.779872 7.096269 0.288470 -3.780070 -1.374702 -6.493302 19.780876 -0.810837 14.431925 14.616229 -0.265385 -0.229671 -0.243720 -2.599666 -4.947214 -3.999659 -1.319172 -2.403543 27.410887 -3.241076 -12.955237 9.041431 2.348633 0.534977 -0.522380 -1.561239 -2.038936 14.050652 -1.336252 -1.806591 -8.990170 1.623413 -3.393099 5.626758 0.082668 -4.660930 1.496808 3.995790 2.313435 -5.224030 -15.778673 7.241872 5.891773 -31.520657 8.453765 8.052211 -11.075842 -29.419638 15.250460 -9.069672 -10.706414 0.826247 13.080121 -5.889252 -1.078426 46.010400 -12.304346 8.985046 -6.659093 26.008211 0.024285 4.734147 6.782072 -2.635292 
-0.737674 65.418770 0.918470 115.885583 -33.130248 157.563677 7.215420 0.254370 -3.928912 -1.178614 -6.541288 20.048447 -0.007974 14.860348 14.140584 -0.305026 -0.206129 -0.221101 -2.443141 -4.953431 -3.943148 -1.183502 -2.496810 26.794076 -3.555793 -12.639949 7.631016 2.313682 0.530179 -0.524970 -1.537459 -1.965893 13.860683 -1.204525 -1.877175 -8.817721 1.580625 -3.308940 5.492891 -0.127636 -4.598046 1.562491 3.766358 2.193133 -5.371542 -15.140116 7.003135 5.814473 -30.018702 8.323167 7.831125 -11.024135 -29.776255 14.689037 -9.195802 -10.824240 0.950332 13.364260 -5.902756 -1.116349 45.382958 -12.211291 8.801766 -6.234277 26.199579 -0.351455 4.501847 6.784058 -2.412245 
-0.917620 65.450790 0.662054 115.761607 -32.874409 157.868022 7.112863 0.129262 -4.136058 -1.092669 -6.527098 20.427938 0.412742 14.936614 13.744670 -0.326781 -0.202855 -0.219954 -2.378438 -4.875029 -4.023810 -1.358097 -2.577563 26.885068 -3.944936 -12.779921 7.283260 2.343460 0.533553 -0.574474 -1.526361 -1.887810 13.722604 -1.020390 -1.874124 -8.597203 1.527023 -3.204337 5.323967 -0.280032 -4.412515 1.673366 3.617917 2.140876 -5.480637 -14.530626 6.616023 5.745479 -28.310704 8.109559 7.657034 -11.016951 -30.576267 14.055691 -9.106663 -10.891691 0.775017 13.654266 -5.905520 -1.072183 44.627590 -12.298571 8.588763 -5.741892 26.256030 -0.874272 4.286618 6.687382 -2.413470 
-1.057128 65.486023 0.320205 115.520325 -32.438499 158.357739 7.026361 0.118648 -4.266220 -1.070176 -6.628668 20.564625 0.637268 15.265560 13.351373 -0.347650 -0.172438 -0.227179 -2.314252 -4.795483 -4.037406 -1.439155 -2.501760 26.652734 -4.244844 -13.095756 6.745391 2.279951 0.544827 -0.618520 -1.497264 -1.872021 13.601770 -0.922845 -1.907664 -8.449131 1.533881 -3.113817 5.188844 -0.508525 -4.261107 1.591008 3.511997 2.169931 -5.595492 -13.932354 6.399698 5.656075 -26.607886 8.017962 7.241667 -10.788283 -30.694899 13.115058 -9.243884 -10.875784 0.881679 13.908360 -5.978928 -1.098210 43.965034 -12.327988 8.337579 -5.385813 26.467326 -1.219445 4.158180 6.666048 -2.189784 
-1.254725 65.524895 -0.023226 115.283738 -31.865851 158.815110 6.969394 0.089449 -4.580070 -1.061539 -6.560993 21.177358 1.008632 15.414124 12.991765 -0.348637 -0.172047 -0.218366 -2.259479 -4.746872 -3.973412 -1.492643 -2.376220 26.317115 -4.652985 -13.245432 6.175896 2.231721 0.579977 -0.724290 -1.412646 -1.781377 13.546509 -0.774129 -1.922542 -8.360863 1.496729 -2.977741 5.126781 -0.834500 -4.143364 1.630000 3.392597 2.055482 -5.883527 -13.416057 6.113747 5.535331 -24.844238 7.927173 6.774110 -10.446933 -30.832782 12.032442 -9.212005 -10.824407 0.899792 14.265973 -5.955246 -1.096879 43.134839 -12.531633 7.946266 -5.066468 26.958804 -1.615914 3.967463 6.613335 -2.195226 
-1.508829 65.567078 -0.020704 115.303871 -31.628451 159.075601 6.900794 0.006816 -4.734941 -1.032963 -6.600237 21.125045 1.485095 15.653023 12.510066 -0.380507 -0.148085 -0.242381 -2.174567 -4.760693 -3.846288 -1.618276 -2.415055 25.716140 -4.872239 -13.537162 5.827216 2.219427 0.593517 -0.778210 -1.381636 -1.709450 13.423397 -0.613670 -1.913890 -8.307975 1.469085 -2.900676 5.010356 -0.954798 -3.737268 1.514209 3.227031 2.126117 -6.062984 -12.821605 6.007098 5.305096 -22.955369 7.679425 6.256233 -10.200192 -31.121976 10.948176 -9.173116 -10.885380 0.985948 14.661887 -6.145843 -1.242012 42.195966 -12.431105 7.560367 -4.724827 27.070676 -2.227970 3.722552 6.592563 -2.279728 
-1.697809 65.612137 -0.474464 115.028265 -31.214596 159.686180 6.796062 -0.050389 -5.098595 -1.067830 -6.618728 21.637091 1.811984 15.709408 12.244414 -0.428430 -0.134554 -0.250618 -2.128947 -4.795619 -3.797542 -1.754787 -2.383498 25.292918 -5.310830 -13.714613 5.210442 2.235815 0.594859 -0.845710 -1.351162 -1.583699 13.401997 -0.422904 -1.950328 -8.196512 1.436722 -2.782634 4.827644 -1.232697 -3.505512 1.534371 2.932106 2.051677 -6.294264 -12.200250 5.754915 5.089740 -21.249113 7.561636 5.789733 -9.876765 -30.963326 9.896823 -9.049581 -10.964274 0.857963 15.060188 -6.283874 -1.342618 41.226189 -12.585883 7.313187 -4.205164 27.131671 -2.635735 3.402961 6.631117 -2.398200 
-1.902648 65.660172 -0.758662 114.766782 -30.757612 160.191190 6.643096 -0.019368 -5.182753 -1.063736 -6.653480 21.601915 2.081763 15.986290 12.151973 -0.491600 -0.075488 -0.263804 -2.124706 -4.702457 -3.905132 -1.835628 -2.308346 25.148469 -5.615018 -14.003467 4.736114 2.236897 0.578041 -0.881558 -1.275972 -1.568813 13.325197 -0.330024 -1.952892 -8.073527 1.484537 -2.715744 4.751371 -1.454951 -3.351237 1.534518 2.784819 2.093624 -6.533226 -11.626072 5.602896 4.886701 -19.260066 7.423013 5.184072 -9.573207 -30.610901 8.585525 -9.043052 -10.936540 1.150232 15.343757 -6.370147 -1.483438 40.308643 -12.565818 6.910349 -3.813275 27.349975 -3.276676 3.109874 6.695456 -2.212369 
-2.166605 65.713463 -0.851750 114.672260 -30.396405 160.503684 6.436457 -0.169763 -5.564295 -1.004692 -6.702254 22.137153 2.377455 16.185675 12.111732 -0.499840 -0.047017 -0.269183 -2.087328 -4.685863 -3.684407 -1.866223 -2.143581 24.420917 -5.978753 -14.270906 4.230815 2.195954 0.597937 -0.963300 -1.201453 -1.414379 13.180799 -0.116161 -2.011925 -7.940321 1.431528 -2.582194 4.678809 -1.709449 -3.167994 1.748465 2.660192 1.991223 -6.754674 -10.987082 5.369378 4.614167 -17.207359 7.318656 4.859248 -9.642458 -30.661523 7.750434 -9.133056 -11.084330 1.079386 15.792887 -6.498821 -1.682237 39.061419 -12.679797 6.495690 -3.271580 27.868400 -4.053381 2.922101 6.719908 -2.419767 
-2.340688 65.765709 -0.891455 114.484666 -30.347000 160.957381 6.134619 -0.259069 -5.477410 -1.000908 -7.057934 21.365376 2.667249 16.487986 12.340629 -0.546892 -0.002775 -0.251148 -2.047415 -4.528963 -3.913062 -2.103140 -2.076676 24.265768 -6.396511 -14.736187 4.207235 2.301359 0.577584 -1.003509 -1.133405 -1.387327 13.087722 0.060371 -1.987187 -7.789806 1.410586 -2.481617 4.499117 -2.058813 -3.060818 1.606066 2.561397 2.163905 -6.868879 -10.595138 5.081491 4.364916 -15.248317 7.067491 4.232168 -8.983628 -29.841323 6.073370 -8.553099 -10.869447 1.274721 16.396445 -6.685507 -1.796465 37.732946 -12.812852 6.173433 -2.934813 28.321368 -4.940438 2.169624 6.706102 -2.543819 
-2.574221 65.825996 -0.658133 114.390750 -30.038289 161.160455 5.838556 -0.282162 -5.609847 -0.888024 -7.035869 21.197055 2.854617 16.794074 12.601591 -0.616347 0.008088 -0.245266 -2.086766 -4.594023 -3.919770 -2.246535 -2.064621 23.710571 -6.538763 -14.985457 4.093530 2.274965 0.536820 -1.025893 -1.081904 -1.272045 13.024479 0.202476 -1.938356 -7.658849 1.437434 -2.389491 4.400662 -2.202771 -2.982691 1.574078 2.502172 2.221794 -7.088492 -10.061361 5.000782 4.141505 -13.429084 6.981210 3.772437 -8.610576 -29.661559 4.421626 -8.479221 -10.855030 1.133895 16.694709 -6.740007 -1.949376 36.571580 -12.792434 5.841767 -2.656167 29.004691 -5.709916 2.030027 6.623099 -2.769964 
-2.892298 65.889214 -0.752513 114.352794 -29.426586 161.630810 5.640644 -0.336646 -5.660849 -0.641170 -6.966941 20.764589 3.326556 17.371641 12.570383 -0.685204 0.036621 -0.251691 -1.997010 -4.476125 -4.144361 -2.244263 -2.088449 23.347352 -6.803859 -14.992912 3.374845 2.289511 0.524686 -1.066613 -1.022328 -1.224794 12.833991 0.406144 -1.923322 -7.440950 1.457730 -2.303103 4.182508 -2.389341 -2.794803 1.772643 2.334024 2.214396 -7.253325 -9.477550 4.776176 3.963207 -11.523435 6.748158 3.262074 -8.399994 -29.284837 2.920160 -8.304590 -10.763833 1.531940 16.932413 -6.780031 -2.069947 35.353237 -12.585650 5.539898 -2.281294 29.234657 -6.524628 1.680354 6.553422 -2.788973 
-3.076993 65.961761 -0.542559 114.205923 -29.284683 161.779996 5.387565 -0.330419 -5.649063 -0.696737 -6.839276 20.373950 3.280340 17.466181 13.099165 -0.734569 0.061027 -0.229742 -2.049174 -4.508632 -4.131363 -2.476131 -1.996338 22.958611 -7.035029 -15.237558 3.533719 2.353595 0.516287 -1.107036 -0.984692 -1.167230 12.885087 0.507115 -1.906613 -7.442887 1.426796 -2.233827 4.079290 -2.592999 -2.570696 1.732066 2.205160 2.218789 -7.595662 -8.979573 4.649836 3.651696 -10.313859 6.594782 2.704349 -7.767352 -28.623812 1.591579 -7.869427 -10.964145 1.337295 17.067244 -6.857259 -2.319328 34.486088 -12.651937 5.189834 -2.291819 29.741439 -7.209263 1.184016 6.749639 -3.280913 
